<svg width="30" height="30" viewBox="0 0 30 30" fill="none" xmlns="http://www.w3.org/2000/svg">
<path d="M25.5875 2.50005H4.41251C4.17449 2.49675 3.93814 2.54036 3.71697 2.62841C3.4958 2.71645 3.29414 2.8472 3.12351 3.01319C2.95288 3.17918 2.81661 3.37716 2.7225 3.59581C2.62839 3.81447 2.57827 4.04953 2.57501 4.28755V25.7126C2.57827 25.9506 2.62839 26.1856 2.7225 26.4043C2.81661 26.6229 2.95288 26.8209 3.12351 26.9869C3.29414 27.1529 3.4958 27.2837 3.71697 27.3717C3.93814 27.4597 4.17449 27.5034 4.41251 27.5001H25.5875C25.8255 27.5034 26.0619 27.4597 26.2831 27.3717C26.5042 27.2837 26.7059 27.1529 26.8765 26.9869C27.0471 26.8209 27.1834 26.6229 27.2775 26.4043C27.3716 26.1856 27.4218 25.9506 27.425 25.7126V4.28755C27.4218 4.04953 27.3716 3.81447 27.2775 3.59581C27.1834 3.37716 27.0471 3.17918 26.8765 3.01319C26.7059 2.8472 26.5042 2.71645 26.2831 2.62841C26.0619 2.54036 25.8255 2.49675 25.5875 2.50005ZM10.1125 23.4251H6.36251V12.1751H10.1125V23.4251ZM8.23751 10.6001C7.72034 10.6001 7.22435 10.3946 6.85865 10.0289C6.49296 9.66321 6.28751 9.16722 6.28751 8.65005C6.28751 8.13288 6.49296 7.63689 6.85865 7.27119C7.22435 6.9055 7.72034 6.70005 8.23751 6.70005C8.51213 6.66891 8.79023 6.69612 9.05361 6.77991C9.31698 6.86369 9.55969 7.00217 9.76583 7.18625C9.97198 7.37034 10.1369 7.5959 10.2499 7.84816C10.3628 8.10041 10.4212 8.37367 10.4212 8.65005C10.4212 8.92643 10.3628 9.1997 10.2499 9.45195C10.1369 9.7042 9.97198 9.92976 9.76583 10.1139C9.55969 10.2979 9.31698 10.4364 9.05361 10.5202C8.79023 10.604 8.51213 10.6312 8.23751 10.6001ZM23.6375 23.4251H19.8875V17.3876C19.8875 15.8751 19.35 14.8876 17.9875 14.8876C17.5658 14.8906 17.1552 15.0229 16.8111 15.2665C16.4669 15.5101 16.2056 15.8534 16.0625 16.2501C15.9647 16.5439 15.9223 16.8533 15.9375 17.1626V23.4126H12.1875C12.1875 23.4126 12.1875 13.1876 12.1875 12.1626H15.9375V13.7501C16.2782 13.1589 16.7736 12.672 17.3706 12.3416C17.9675 12.0112 18.6432 11.8499 19.325 11.8751C21.825 11.8751 23.6375 13.4876 23.6375 16.9501V23.4251Z" fill="white"/>
</svg>
